<?xml version="1.0" standalone="no"?>
<!DOCTYPE svg PUBLIC "-//W3C//DTD SVG 20010904//EN"
 "http://www.w3.org/TR/2001/REC-SVG-20010904/DTD/svg10.dtd">
<svg version="1.0" xmlns="http://www.w3.org/2000/svg"
 width="1280.000000pt" height="640.000000pt" viewBox="0 0 1280.000000 640.000000"
 preserveAspectRatio="xMidYMid meet">
<metadata>
Created by potrace 1.15, written by Peter Selinger 2001-2017
</metadata>
<g transform="translate(0.000000,640.000000) scale(0.100000,-0.100000)"
fill="#000000" stroke="none">
<path d="M9370 5880 c-64 -6 -151 -38 -165 -59 -3 -6 -27 -22 -53 -35 -69 -36
-126 -118 -151 -216 -6 -25 -25 -72 -41 -105 -16 -33 -37 -81 -46 -106 -17
-51 -43 -69 -97 -69 -18 0 -82 -9 -143 -19 -89 -15 -125 -26 -180 -57 -93 -52
-174 -114 -228 -176 -52 -60 -50 -70 25 -112 89 -50 68 -78 -132 -174 -134
-65 -221 -142 -278 -246 -23 -42 -41 -85 -41 -97 0 -12 -7 -30 -15 -39 -8 -9
-18 -36 -21 -61 -9 -62 15 -90 87 -100 142 -21 163 -21 209 -4 25 9 59 19 77
22 28 4 34 1 57 -36 28 -43 117 -120 176 -150 43 -23 126 -41 185 -41 51 0 70
-15 79 -65 6 -29 11 -35 32 -35 13 0 41 7 61 15 64 27 66 24 58 -58 -5 -55 -3
-76 7 -84 31 -26 129 -44 263 -49 129 -5 145 -8 200 -35 85 -42 213 -64 290
-51 33 5 81 19 105 30 72 32 77 32 145 11 59 -18 84 -33 73 -45 -11 -10 -264
-54 -397 -68 -79 -9 -229 -16 -335 -16 -105 0 -229 -5 -276 -11 -47 -6 -178
-10 -292 -9 l-206 2 -14 -29 -13 -28 -135 -6 -135 -6 -63 43 c-49 34 -74 44
-120 48 -31 4 -77 11 -102 17 -77 19 -251 29 -317 18 -85 -13 -94 -8 -77 41
10 29 11 47 3 66 -5 15 -7 34 -4 41 10 27 -15 52 -81 84 -70 33 -84 34 -228
13 l-49 -7 7 29 c15 60 16 79 7 93 -13 20 -156 43 -221 36 -91 -10 -189 -65
-265 -148 l-64 -70 -63 33 c-51 27 -78 34 -139 38 -74 4 -78 3 -159 -38 -80
-42 -172 -121 -214 -184 -22 -33 -88 -65 -135 -66 -18 0 -62 -14 -98 -32 -122
-60 -230 -215 -213 -305 7 -43 34 -93 48 -93 5 0 37 -25 73 -56 35 -30 78 -62
94 -69 17 -7 61 -43 99 -79 38 -36 77 -66 86 -66 9 0 39 -12 66 -26 149 -79
381 -114 722 -109 308 5 507 25 662 66 77 21 191 62 203 73 7 6 23 17 37 24
14 6 58 33 99 59 70 43 79 46 152 49 96 3 178 26 209 59 13 14 28 25 33 25 5
0 34 18 65 40 65 45 165 75 215 64 23 -5 1079 -17 1212 -13 11 0 115 11 275
28 226 25 339 51 434 98 41 21 57 24 103 18 53 -6 75 7 32 20 -16 5 -18 9 -8
21 18 22 76 44 116 44 54 0 253 38 303 58 69 27 130 61 130 72 0 6 11 15 24
21 15 7 32 31 45 60 11 27 26 49 33 49 8 0 29 16 48 35 28 29 32 39 24 53 -14
22 -51 27 -71 11 -8 -7 -40 -46 -70 -86 -30 -40 -65 -78 -77 -84 -11 -6 -37
-26 -56 -45 -47 -44 -99 -61 -233 -75 -135 -13 -201 -30 -287 -73 -36 -18
-103 -46 -150 -61 -47 -16 -96 -33 -110 -38 -14 -6 -32 -9 -40 -8 -15 3 -87
-7 -245 -34 -166 -29 -1045 -53 -1045 -29 0 7 6 14 14 17 19 8 31 78 27 159
-3 66 -2 68 25 79 19 8 83 11 179 10 186 -3 474 15 580 35 238 45 351 74 432
110 28 13 55 24 58 24 4 0 19 8 33 19 15 10 97 49 182 86 85 37 180 82 211
101 31 19 61 34 66 34 18 0 46 39 40 55 -7 18 -58 20 -75 3 -14 -14 -185 -106
-360 -194 -92 -46 -149 -69 -182 -72 -59 -5 -199 24 -207 44 -3 8 18 41 52 79
87 99 50 86 -110 -41 -115 -90 -122 -94 -190 -94 -75 0 -164 24 -245 66 -63
32 -72 34 -171 34 -57 1 -129 7 -159 14 -61 14 -62 16 -45 116 7 43 6 47 -19
58 -34 15 -107 15 -141 0 -30 -14 -45 -1 -45 41 0 23 1 23 73 16 134 -12 207
-43 223 -95 13 -38 38 -51 48 -24 4 11 -3 30 -22 53 -33 41 -102 68 -307 121
-158 41 -279 100 -319 157 -34 49 -43 120 -14 115 23 -4 31 14 18 38 -17 31
-56 26 -75 -10 -21 -40 -19 -54 12 -107 40 -69 127 -149 181 -167 79 -25 122
-46 122 -57 0 -7 -10 -9 -24 -5 -13 3 -53 10 -90 15 -37 5 -87 19 -111 31 -54
26 -185 163 -215 225 -25 51 -47 58 -55 18 -10 -44 -19 -57 -56 -75 -43 -23
-120 -22 -178 0 -58 22 -72 62 -42 119 24 48 94 143 155 211 46 50 195 152
224 152 15 0 108 67 135 98 21 23 25 22 197 -31 63 -19 138 -38 165 -42 72
-10 638 -7 714 5 35 5 69 14 74 19 6 6 28 11 49 11 27 0 38 4 38 15 0 10 7 13
28 9 30 -6 174 38 262 80 30 15 87 47 125 71 39 24 73 44 78 45 4 0 26 12 48
27 l40 26 42 -23 c77 -42 161 -118 269 -240 46 -52 68 -58 68 -18 0 23 -121
152 -194 206 -55 40 -48 54 11 23 62 -32 147 -111 281 -264 14 -16 97 -67 110
-67 6 0 22 -10 34 -22 22 -22 77 -41 228 -77 41 -10 88 -23 103 -29 16 -7 33
-10 38 -7 4 3 21 -1 36 -8 15 -8 78 -27 138 -41 324 -79 296 -74 541 -82 127
-3 237 -10 244 -14 8 -5 3 -21 -19 -57 -17 -28 -31 -54 -31 -59 -1 -5 -21 -40
-45 -79 -25 -38 -48 -77 -52 -85 -3 -8 -27 -41 -52 -72 -25 -31 -67 -85 -93
-120 -115 -154 -276 -292 -439 -374 -60 -30 -114 -54 -119 -54 -6 0 -35 -11
-63 -24 -154 -71 -227 -97 -397 -142 -87 -22 -125 -27 -222 -27 -65 1 -118 -2
-118 -5 0 -3 10 -16 21 -28 l21 -23 -37 -15 c-21 -9 -43 -16 -49 -16 -6 0 -60
-16 -119 -35 -59 -19 -120 -35 -135 -35 -15 0 -36 -6 -47 -14 -39 -27 -446
-140 -717 -199 -58 -12 -98 -26 -98 -33 0 -7 -8 -10 -19 -7 -20 5 -276 -46
-363 -73 -26 -8 -55 -14 -66 -14 -10 0 -45 -9 -78 -21 -32 -11 -97 -31 -144
-43 -101 -27 -340 -106 -425 -141 -33 -13 -105 -40 -160 -60 -55 -20 -135 -50
-179 -67 -64 -25 -82 -29 -97 -20 -30 19 -63 14 -110 -17 -31 -21 -75 -36
-149 -51 -171 -34 -519 -127 -605 -161 -44 -17 -102 -35 -130 -39 -27 -5 -57
-11 -65 -14 -8 -3 -78 -17 -155 -31 -186 -33 -179 -31 -214 -61 -29 -24 -30
-27 -17 -53 15 -29 86 -81 110 -81 7 0 19 -7 26 -14 6 -8 37 -20 68 -26 31 -6
83 -21 116 -32 48 -17 82 -21 190 -22 126 0 555 29 564 39 10 9 32 -18 32 -39
0 -26 54 -52 120 -60 25 -2 72 -9 105 -15 55 -10 64 -9 104 12 31 15 48 32 54
52 12 35 84 145 96 145 4 0 26 18 48 39 55 55 155 80 183 46 16 -19 88 -20
109 -1 13 11 40 12 141 5 78 -6 181 -5 275 1 155 11 362 23 615 35 80 4 165
11 190 17 25 5 68 13 95 18 71 12 124 25 170 43 22 8 59 18 82 21 23 4 49 14
60 21 10 8 30 15 46 15 15 0 76 21 135 47 l107 47 223 0 c123 1 225 -2 227 -5
2 -3 0 -32 -6 -65 -5 -32 -14 -99 -19 -149 -5 -49 -12 -97 -16 -105 -3 -8 -9
-60 -14 -115 -12 -123 -27 -245 -40 -305 -5 -25 -14 -85 -20 -135 -7 -49 -19
-130 -27 -180 -26 -155 -28 -194 -9 -200 49 -16 49 -18 3 -26 -27 -4 -65 -19
-86 -32 -20 -13 -47 -27 -61 -32 -27 -8 -142 -72 -205 -115 -54 -36 -130 -70
-185 -80 -83 -17 -221 -49 -230 -55 -18 -11 -10 -46 15 -71 14 -14 26 -30 28
-35 2 -9 -145 -16 -399 -20 -82 -1 -128 2 -144 11 -19 10 -103 12 -400 6 -440
-7 -610 -8 -932 -6 -160 1 -248 -2 -270 -10 -25 -9 -122 -10 -388 -3 -414 11
-855 8 -1025 -7 -66 -6 -286 -13 -490 -15 -203 -3 -410 -8 -460 -11 -96 -7
-312 -6 -460 2 -49 3 -157 7 -240 10 -82 2 -203 7 -268 11 l-118 6 21 22 c22
23 22 23 2 43 -11 11 -41 27 -68 37 -81 29 -174 77 -174 91 0 8 33 14 117 18
240 12 346 32 478 89 52 23 155 111 155 132 0 7 7 18 16 25 12 11 27 9 87 -11
143 -48 384 -24 457 46 22 21 30 23 62 16 20 -5 60 -23 89 -41 28 -17 64 -32
79 -32 43 -1 114 38 151 84 42 53 117 157 144 200 20 31 59 55 215 128 36 17
84 44 108 61 34 25 42 36 42 63 0 17 -5 37 -12 44 -14 14 -70 16 -84 3 -11
-11 -115 -35 -258 -61 -72 -13 -154 -20 -236 -20 l-126 0 -67 51 c-37 29 -67
55 -67 59 0 4 -25 23 -56 41 -31 19 -68 44 -82 55 -15 12 -45 31 -68 42 -66
34 -70 43 -51 117 30 111 16 363 -22 409 -20 23 -51 147 -57 226 -4 55 -1 93
11 140 9 36 23 98 30 138 17 86 25 103 58 121 49 26 64 112 26 147 -41 37 -43
52 -9 91 23 26 30 42 26 59 -7 28 0 33 80 50 36 7 97 30 136 51 60 32 73 44
89 81 23 53 24 70 3 124 -24 61 -60 96 -119 114 -47 15 -56 15 -108 0 -32 -9
-61 -14 -66 -12 -5 3 -5 25 -1 48 5 24 5 77 0 118 -10 92 4 126 73 169 59 38
61 65 12 138 -59 88 -108 117 -300 178 -113 35 -130 44 -133 64 -4 23 -32 57
-63 76 -9 6 -27 18 -40 27 -25 18 -103 24 -151 12 -14 -3 -50 1 -80 9 -29 9
-91 21 -138 27 -114 14 -189 30 -223 47 -16 8 -84 18 -156 23 -126 8 -129 9
-180 45 -57 41 -120 54 -273 55 -42 0 -80 5 -83 10 -3 6 -15 10 -27 10 -11 0
-47 14 -79 32 l-58 32 -105 -12 c-106 -11 -151 -6 -239 27 -37 14 -259 14
-330 0 -48 -10 -71 -9 -136 5 -65 14 -92 15 -161 7 -82 -11 -83 -10 -147 20
-81 39 -161 48 -229 26 -52 -17 -120 -11 -149 13 -10 8 -29 10 -58 6 -33 -5
-59 -1 -99 14 -45 17 -86 21 -218 25 -147 4 -171 8 -259 36 -93 30 -99 31
-186 21 -148 -17 -386 -9 -478 17 -42 11 -89 21 -104 21 -37 0 -116 -55 -136
-94 -45 -90 -59 -238 -40 -431 12 -116 11 -134 -3 -170 -30 -75 -79 -169 -101
-196 -49 -57 -70 -149 -35 -149 29 0 40 13 58 65 9 28 45 107 80 178 l63 127
-2 213 c-2 195 0 218 20 283 20 60 55 114 75 114 3 0 -9 -30 -28 -67 -61 -121
-73 -279 -34 -458 10 -45 8 -58 -13 -115 -14 -36 -39 -108 -57 -160 -42 -122
-116 -289 -141 -316 -17 -18 -18 -25 -8 -46 9 -20 8 -32 -5 -56 -20 -39 -20
-58 0 -66 10 -4 26 6 46 29 29 32 34 34 77 28 25 -3 50 -10 56 -15 11 -9 -23
-41 -90 -85 -47 -30 -95 -73 -95 -85 0 -4 17 -8 38 -8 32 0 48 10 120 75 65
59 89 75 113 75 17 0 39 4 49 10 36 19 124 238 146 364 8 43 19 85 25 93 6 7
27 13 46 13 35 0 35 -1 29 -35 -4 -19 -17 -58 -30 -87 -13 -29 -27 -69 -31
-88 -4 -19 -18 -54 -31 -76 -24 -41 -55 -167 -46 -192 2 -7 17 -19 33 -28 28
-14 32 -14 65 7 23 14 45 42 66 83 17 33 38 72 48 86 25 36 88 198 109 281 18
70 18 74 0 114 -14 32 -18 64 -17 141 1 102 10 144 28 144 7 0 8 -6 0 -19 -14
-28 -12 -76 5 -118 8 -19 15 -44 15 -54 0 -18 16 -60 48 -128 16 -32 15 -37
-15 -120 -17 -47 -41 -111 -53 -141 -12 -30 -29 -75 -38 -100 -10 -25 -34 -75
-55 -112 -20 -36 -37 -75 -37 -86 0 -25 39 -57 88 -73 53 -17 65 -28 50 -46
-12 -15 -156 -113 -165 -113 -3 0 -57 -34 -119 -76 -107 -71 -114 -78 -99 -94
15 -16 13 -19 -22 -37 -238 -122 -294 -154 -328 -192 -30 -33 -36 -46 -31 -68
4 -18 0 -43 -13 -69 -25 -51 -38 -182 -22 -212 9 -17 40 -32 41 -19 10 68 31
162 39 170 23 23 31 -7 15 -53 -9 -25 -18 -71 -21 -102 -5 -53 -7 -56 -31 -55
-58 4 -62 -109 -9 -240 19 -49 19 -54 4 -71 -9 -10 -24 -41 -32 -68 -12 -42
-12 -51 -1 -63 23 -22 41 -7 55 47 7 28 21 58 31 67 18 16 20 17 26 1 8 -21
-51 -142 -75 -156 -11 -5 -21 -24 -24 -42 -3 -18 -10 -54 -16 -80 -13 -59 -4
-86 36 -107 17 -9 55 -32 84 -51 30 -20 68 -42 85 -49 22 -8 43 -32 68 -74 20
-34 58 -81 86 -105 27 -24 50 -47 50 -52 0 -5 -28 -8 -62 -7 -133 4 -236 -3
-241 -16 -14 -36 8 -41 160 -39 81 1 172 7 201 13 67 13 90 8 142 -36 23 -19
50 -35 60 -35 11 0 21 -4 24 -9 4 -5 38 -22 77 -37 82 -32 75 -42 -33 -43 -37
-1 -78 -5 -93 -11 -17 -6 -51 -6 -102 1 -86 12 -143 5 -143 -16 0 -28 37 -34
176 -31 77 2 139 4 139 5 0 1 22 4 49 6 28 3 65 10 84 16 40 13 106 5 172 -21
26 -10 86 -28 133 -39 66 -16 104 -32 157 -67 106 -71 96 -80 -85 -83 -55 -2
-102 -5 -105 -8 -3 -2 7 -15 21 -27 23 -20 43 -24 127 -30 91 -7 104 -6 143
15 39 19 48 20 92 10 27 -6 66 -11 88 -11 22 0 56 -7 76 -15 19 -8 46 -15 60
-15 30 0 90 -30 171 -86 35 -24 67 -44 72 -44 6 0 10 -4 10 -9 0 -5 -48 -9
-107 -9 -60 1 -145 -5 -191 -12 -63 -10 -88 -10 -108 -2 -32 15 -66 15 -99 0
-31 -14 -32 -29 -4 -54 18 -16 38 -19 128 -20 125 -1 364 15 456 31 25 4 67 0
110 -10 39 -9 91 -20 117 -25 26 -5 56 -14 68 -20 13 -7 59 -10 124 -7 96 3
107 6 157 37 l53 32 46 -16 c25 -9 90 -20 145 -25 55 -5 155 -15 222 -22 l122
-12 70 43 70 42 40 -34 c22 -19 61 -44 87 -57 42 -21 53 -23 88 -13 36 9 46 8
78 -11 49 -27 48 -43 -4 -52 -24 -4 -315 -9 -648 -13 -333 -3 -639 -6 -680 -6
-41 0 -88 1 -105 4 -27 4 -30 2 -30 -20 0 -41 46 -50 215 -43 80 3 244 5 365
5 121 -1 328 -2 460 -3 234 -1 418 6 481 17 18 3 69 -2 115 -12 47 -9 133 -18
194 -19 61 0 117 -4 125 -8 14 -6 167 -13 460 -21 63 -2 171 -7 240 -12 69 -4
132 -7 140 -6 12 2 482 1 555 -1 11 0 119 3 240 7 213 7 545 8 1450 8 237 -1
464 -1 505 0 41 0 134 0 205 -1 72 0 240 1 375 4 135 3 479 7 765 10 827 8
1393 15 1485 20 47 2 125 6 173 8 48 3 90 7 94 10 3 4 15 0 26 -8 14 -10 26
-11 38 -5 9 5 34 9 56 9 63 -1 255 10 308 17 57 8 160 11 670 18 198 3 360 6
360 7 0 1 61 3 135 5 77 2 166 10 206 20 67 15 74 15 105 0 32 -16 34 -16 47
1 7 10 12 36 10 58 -3 36 -5 40 -28 37 -14 -1 -61 -6 -105 -12 -44 -5 -85 -9
-92 -9 -7 -1 -10 -7 -8 -13 6 -15 -96 -17 -128 -3 -21 9 -140 -1 -189 -16 -18
-5 -100 -12 -183 -14 -219 -7 -915 -6 -926 0 -5 4 0 18 11 33 38 51 66 159 61
230 -1 7 -15 19 -33 26 l-32 14 32 16 c18 9 40 33 51 54 34 66 66 190 75 287
7 79 25 152 64 251 22 55 50 134 62 175 12 41 30 88 40 104 10 17 23 48 30 70
7 22 20 54 30 70 10 17 32 77 48 135 17 58 51 176 76 263 25 87 46 171 46 188
0 24 4 29 24 29 14 0 80 29 148 64 184 95 206 109 220 135 7 13 46 50 86 83
40 33 80 74 88 91 9 18 40 57 69 87 29 31 60 70 69 88 9 18 21 32 26 32 5 0
12 10 15 21 4 12 25 49 47 83 85 132 118 222 161 446 5 30 9 64 9 75 -8 109
-21 205 -30 228 -18 43 -81 138 -116 175 -33 36 -114 80 -186 102 -25 7 -53
20 -63 28 -16 14 -15 16 10 33 111 72 135 98 117 127 -13 19 -72 20 -109 3
-26 -13 -76 -20 -205 -29 -124 -10 -271 0 -545 36 -87 12 -241 51 -376 96 -57
19 -132 39 -167 45 -35 6 -77 17 -94 26 -17 8 -37 15 -44 15 -6 0 -30 15 -52
33 -22 17 -55 43 -73 57 -19 14 -78 69 -133 122 -77 76 -117 107 -182 140 -45
23 -80 46 -78 50 2 3 28 14 57 22 29 8 63 26 75 39 l22 24 -26 49 c-14 27 -37
61 -51 75 -62 66 -251 134 -401 145 -50 4 -96 12 -101 18 -4 6 -15 43 -24 83
-9 40 -30 107 -46 150 -16 43 -32 86 -35 96 -11 33 -84 56 -220 67 -71 5 -134
9 -140 8 -6 0 -40 -4 -76 -8z m259 -54 c14 -8 30 -12 37 -9 28 10 22 -17 -6
-32 -35 -18 -235 -46 -325 -45 -33 1 -79 -1 -102 -4 -50 -6 -55 3 -15 26 71
42 139 61 247 68 61 4 117 7 125 8 8 1 26 -5 39 -12z m146 -111 c8 -20 26 -82
40 -138 15 -56 35 -135 46 -175 26 -95 19 -106 -103 -167 -138 -68 -308 -117
-462 -131 -236 -22 -252 -23 -241 -3 4 5 37 9 74 9 59 0 215 31 229 45 3 3
-12 12 -34 21 -31 13 -64 15 -164 12 -110 -3 -130 -7 -168 -28 -49 -27 -79
-19 -74 20 2 22 136 330 190 440 l27 54 154 3 c160 3 284 20 381 53 77 27 87
25 105 -15z m416 -351 c74 -23 178 -86 211 -127 26 -33 7 -51 -84 -82 -46 -15
-110 -43 -144 -61 -33 -19 -68 -34 -76 -34 -8 0 -32 -13 -54 -30 -21 -16 -46
-30 -55 -30 -9 0 -22 -7 -29 -16 -13 -15 -25 -22 -150 -84 -129 -64 -393 -106
-640 -103 -203 3 -412 20 -475 37 -27 8 -99 27 -160 42 -60 15 -120 35 -132
44 -12 9 -42 25 -67 34 -30 12 -46 24 -46 35 0 38 249 192 320 198 25 2 56 7
70 12 14 6 58 15 98 21 92 15 101 9 84 -56 -27 -102 34 -136 243 -135 71 0
146 5 165 11 19 5 53 10 75 10 84 0 358 80 417 121 14 11 30 19 34 19 14 0
164 105 164 115 0 5 -9 23 -20 40 -15 22 -16 32 -7 43 16 20 161 7 258 -24z
m-973 -210 c10 -8 -81 -24 -137 -24 -49 0 -62 3 -54 11 20 20 171 30 191 13z
m-184 -54 c7 -7 -3 -10 -26 -10 -51 0 -98 11 -98 23 0 12 110 1 124 -13z
m-7861 -315 c-30 -51 -70 -168 -97 -286 -19 -79 -22 -273 -6 -344 23 -100 23
-125 2 -174 -11 -25 -28 -73 -38 -105 -10 -33 -29 -74 -41 -90 -12 -17 -41
-68 -63 -114 -41 -82 -62 -104 -81 -85 -7 7 -2 27 16 61 22 43 95 257 112 330
3 12 9 22 14 22 21 0 49 81 49 144 0 61 -2 66 -32 90 l-33 25 0 153 c1 134 3
161 24 223 41 120 70 174 118 226 l47 51 19 -39 19 -39 -29 -49z m-703 107 c0
-4 -16 -47 -35 -95 -29 -71 -35 -100 -35 -157 0 -83 28 -279 42 -297 22 -28
27 4 22 135 -11 245 35 412 114 420 29 3 32 1 32 -23 0 -15 -11 -49 -25 -76
-63 -126 -85 -283 -68 -479 8 -83 7 -86 -25 -150 -34 -68 -82 -241 -82 -298 0
-52 -47 -132 -77 -132 -30 0 4 249 56 409 38 116 39 138 6 153 -34 15 -45 3
-97 -98 -23 -46 -46 -84 -51 -84 -12 0 -1 31 45 130 l40 85 -11 95 c-22 199
-22 235 5 328 27 95 56 150 62 120 2 -9 -1 -26 -7 -36 -6 -11 -21 -62 -35
-113 l-24 -94 19 -105 c31 -170 36 -192 50 -201 21 -13 22 23 3 136 -24 144
-21 203 16 320 18 55 34 103 37 108 6 10 23 9 23 -1z m273 2 c3 -3 1 -15 -6
-25 -9 -14 -9 -21 1 -31 11 -11 18 -8 37 16 15 19 28 27 40 22 19 -7 14 -30
-20 -91 -45 -78 -82 -323 -70 -466 11 -146 -26 -119 -61 44 -18 82 -24 242
-10 272 12 26 11 23 20 67 5 21 14 42 22 49 20 16 18 41 -3 37 -21 -4 -59 -59
-74 -107 -6 -20 -13 -101 -15 -181 -3 -106 -8 -145 -17 -145 -17 0 -22 164 -7
235 24 115 72 244 103 278 30 31 47 39 60 26z m227 -13 c0 -5 -15 -22 -34 -38
-38 -32 -84 -119 -110 -208 -10 -33 -22 -71 -27 -85 -17 -46 0 69 22 151 17
63 29 87 71 133 45 51 78 71 78 47z m90 2 c0 -4 -18 -34 -40 -67 -93 -143
-143 -420 -100 -551 12 -37 7 -57 -9 -39 -5 5 -18 47 -30 93 -23 94 -28 200
-9 219 7 7 11 28 10 48 -5 66 70 239 121 279 31 24 57 32 57 18z m344 -21 c7
-12 -22 -69 -72 -140 -42 -58 -76 -142 -63 -155 18 -18 42 3 56 48 19 66 41
99 106 164 60 59 84 70 123 55 25 -10 19 -28 -16 -54 -18 -13 -37 -30 -41 -37
-5 -8 -20 -18 -33 -23 -13 -5 -24 -17 -24 -26 0 -10 -15 -45 -34 -79 -49 -90
-68 -165 -75 -300 -6 -114 -7 -120 -28 -123 -31 -5 -36 25 -31 164 3 84 1 114
-8 114 -25 0 -35 -32 -45 -146 -19 -220 -19 -221 -65 -203 -20 7 -23 18 -29
113 -17 250 74 588 169 626 26 11 103 13 110 2z m667 -64 c56 -26 63 -50 22
-72 -45 -24 -172 -171 -197 -229 -53 -119 -81 -339 -62 -475 8 -52 8 -54 -15
-50 -24 3 -24 3 -22 140 1 76 6 179 12 230 10 81 18 106 62 191 31 62 71 120
107 158 66 70 71 79 44 79 -13 0 -53 -35 -104 -90 -66 -70 -90 -105 -117 -167
-50 -116 -82 -282 -84 -436 -2 -127 -2 -128 -26 -134 -16 -4 -26 -2 -29 6 -2
7 -22 23 -44 37 -40 26 -40 26 -33 72 4 26 8 66 10 89 2 23 6 46 9 51 3 6 13
61 21 124 17 134 37 203 76 272 38 68 157 194 189 199 14 3 43 9 65 15 59 14
63 14 116 -10z m-291 -17 c0 -5 -17 -24 -38 -43 -20 -18 -49 -50 -62 -70 -14
-21 -29 -38 -33 -38 -20 0 -58 -112 -67 -201 -13 -121 -32 -233 -60 -339 -13
-51 -19 -97 -15 -117 3 -20 1 -41 -8 -55 -7 -13 -21 -59 -31 -103 -33 -148
-38 -162 -82 -231 -25 -38 -47 -80 -51 -93 -9 -37 16 -71 75 -101 l53 -27 -50
-44 c-26 -24 -88 -69 -136 -99 -48 -30 -115 -73 -149 -96 -151 -101 -266 -153
-550 -248 -158 -53 -170 -56 -192 -41 -13 8 -36 15 -51 15 -25 0 -21 4 33 40
34 22 69 51 78 65 9 14 24 25 34 25 9 0 34 5 54 11 29 7 40 17 45 37 7 30 40
61 66 62 9 0 17 5 17 10 0 6 12 16 28 22 15 7 43 24 62 38 19 14 67 41 105 60
39 19 99 52 134 73 35 21 102 58 150 83 124 64 136 77 156 159 9 39 28 102 42
140 14 39 33 95 43 125 10 30 30 84 44 119 39 98 30 195 -20 228 -19 12 -24
22 -20 39 3 12 9 71 12 131 3 59 10 113 15 119 5 6 6 13 3 16 -3 3 11 48 31
99 30 78 46 104 93 153 31 32 71 64 87 72 34 15 155 19 155 5z m668 -46 c4 -4
-7 -16 -23 -28 -17 -12 -54 -44 -83 -71 -111 -104 -180 -319 -187 -586 -1 -63
-3 -123 -4 -134 -1 -17 -8 -18 -75 -14 -58 4 -85 11 -127 35 -52 29 -53 31
-58 84 -3 30 -5 108 -4 174 0 105 4 130 30 205 40 117 65 161 123 219 62 62
109 87 225 121 32 10 173 6 183 -5z m202 3 c0 -7 -20 -30 -45 -50 -49 -39
-165 -178 -165 -197 0 -7 -9 -29 -20 -50 -10 -21 -21 -50 -24 -64 -2 -14 -13
-38 -24 -54 -11 -15 -28 -69 -38 -119 -15 -80 -16 -104 -6 -200 7 -60 15 -122
18 -139 3 -18 0 -37 -8 -48 -13 -17 -15 -17 -60 2 -25 11 -49 28 -52 38 -3 10
-6 90 -7 178 -2 166 2 197 53 355 22 69 107 240 119 240 4 0 24 18 45 40 21
22 47 40 59 41 11 0 43 9 70 19 61 22 85 24 85 8z m288 2 c46 0 39 -20 -23
-62 -104 -71 -251 -306 -306 -490 -17 -59 -20 -85 -14 -152 4 -45 12 -98 18
-119 12 -43 10 -46 -53 -67 -32 -11 -45 -10 -85 6 -40 15 -51 25 -68 63 -18
39 -21 64 -21 167 1 126 14 184 71 313 35 81 129 216 165 240 18 11 60 41 93
67 l60 46 65 -6 c36 -3 80 -6 98 -6z m377 -63 c28 -8 50 -19 50 -26 0 -6 -16
-22 -36 -34 -63 -38 -160 -111 -193 -143 -55 -56 -86 -92 -86 -102 0 -5 -9
-17 -20 -27 -11 -10 -39 -76 -64 -154 -55 -170 -65 -213 -74 -326 l-7 -90 -39
2 c-43 3 -91 31 -148 84 -32 31 -36 41 -42 105 -14 139 18 276 99 431 31 59
73 128 93 152 41 50 116 101 148 101 13 0 26 5 29 10 3 6 21 10 38 11 18 0 40
3 49 7 32 13 152 12 203 -1z m388 -78 c26 -13 46 -28 44 -33 -2 -6 -49 -30
-106 -55 -91 -41 -113 -56 -201 -141 -158 -150 -201 -262 -207 -534 -1 -88 -5
-161 -8 -164 -9 -9 -200 20 -222 34 -12 8 -27 31 -33 51 -14 45 -8 198 9 263
7 25 14 56 16 70 14 104 151 310 273 413 136 114 317 154 435 96z m319 -73
c24 -8 54 -16 68 -18 44 -5 28 -30 -35 -53 -32 -12 -81 -41 -108 -64 -27 -22
-59 -41 -71 -41 -42 -1 -126 -103 -126 -154 0 -8 -20 -35 -45 -59 -37 -37 -45
-52 -45 -82 0 -29 -9 -48 -40 -85 -22 -26 -40 -55 -40 -65 0 -9 14 -36 31 -60
30 -41 30 -44 15 -68 -12 -17 -15 -36 -10 -64 l6 -39 -59 -26 c-110 -49 -207
-63 -237 -33 -25 25 -39 122 -31 215 4 47 8 105 10 130 9 131 62 273 128 347
43 47 195 153 252 175 48 19 156 46 205 51 72 8 90 7 132 -7z m436 -95 c93
-14 115 -25 106 -54 -13 -44 -32 -62 -85 -81 -33 -12 -71 -37 -100 -65 -45
-45 -89 -113 -89 -138 0 -7 -9 -18 -20 -25 -27 -17 -25 -31 11 -73 52 -59 110
-43 128 36 36 156 34 152 78 183 24 16 45 27 48 24 3 -3 -15 -29 -40 -59 -47
-55 -62 -94 -67 -167 -2 -49 9 -62 58 -62 18 0 38 8 49 20 21 23 84 42 136 42
21 -1 45 5 55 13 18 13 18 16 -5 85 -19 54 -33 78 -58 97 l-32 25 -31 -22
c-17 -12 -33 -20 -36 -18 -9 10 8 37 27 43 10 4 19 13 19 21 0 11 -4 12 -19 4
-36 -19 -42 -10 -19 30 18 31 29 40 50 40 15 0 30 -4 33 -10 3 -5 16 -10 28
-10 12 0 101 -27 197 -61 96 -33 185 -63 198 -66 27 -7 102 -94 102 -120 0
-19 -148 -186 -181 -203 -14 -8 -25 -6 -44 6 -24 16 -27 16 -45 -1 -18 -16
-18 -19 -3 -41 20 -32 82 -33 122 -3 16 12 33 19 39 15 5 -3 12 -32 16 -64 5
-45 2 -71 -14 -117 -25 -73 -37 -86 -103 -115 -119 -52 -144 -64 -185 -81 -24
-11 -57 -33 -74 -49 -28 -28 -29 -33 -18 -61 17 -41 56 -58 158 -70 141 -16
214 -28 220 -34 13 -13 -17 -40 -59 -54 -61 -20 -259 -18 -384 4 -55 9 -122
20 -150 25 -69 11 -437 136 -510 173 -33 16 -72 38 -88 49 -32 23 -94 115
-103 155 -4 16 -12 35 -19 43 -6 8 -24 37 -39 65 -26 47 -27 55 -21 132 6 62
12 86 27 99 14 13 17 25 13 46 -6 25 -4 28 18 28 34 0 52 26 50 74 -1 42 21
86 61 118 11 9 25 36 31 59 10 42 12 44 55 50 32 5 56 17 84 43 22 20 45 36
50 36 6 0 38 14 71 31 56 27 66 29 145 25 47 -2 118 -9 158 -15z m-3825 -160
c9 -47 -1 -68 -27 -58 -10 4 -16 19 -16 41 0 76 29 87 43 17z m11649 -8 c79
-39 146 -87 171 -120 12 -17 37 -42 55 -57 26 -23 32 -35 32 -66 0 -21 3 -41
8 -44 12 -7 14 -254 3 -331 -10 -66 -60 -201 -97 -262 -98 -160 -158 -245
-188 -267 -15 -12 -32 -31 -36 -42 -8 -21 -136 -139 -236 -218 -27 -21 -80
-53 -119 -72 -206 -99 -263 -128 -291 -148 -17 -12 -71 -33 -120 -45 -49 -13
-118 -31 -154 -41 -93 -25 -159 -41 -205 -51 -22 -4 -78 -17 -125 -28 -47 -11
-100 -21 -119 -21 -18 0 -79 -7 -135 -15 -203 -29 -292 -37 -356 -34 -114 5
-160 0 -223 -27 -34 -14 -91 -35 -127 -45 -36 -10 -99 -30 -140 -43 -262 -85
-335 -98 -645 -115 -82 -5 -274 -18 -425 -29 -152 -11 -342 -18 -425 -17
l-150 3 -3 60 c-2 34 4 87 13 119 9 32 18 99 22 150 l6 92 46 19 c25 11 62 25
81 31 19 6 82 27 140 46 58 19 117 35 131 35 14 0 54 12 90 26 110 44 143 54
174 54 17 0 56 9 86 19 30 11 80 23 110 27 29 4 59 10 64 14 6 4 60 17 120 30
61 12 137 29 170 37 33 8 83 18 110 23 28 5 93 21 145 36 52 14 113 31 135 37
22 5 76 20 120 33 87 25 226 61 290 74 62 12 198 58 257 85 29 14 64 25 77 25
13 0 49 13 80 30 31 16 96 39 145 50 50 12 103 28 118 36 16 8 33 12 39 8 6
-3 21 -2 32 4 67 32 115 52 140 58 15 3 30 10 33 15 3 5 17 9 32 9 15 0 51 14
81 30 30 17 60 30 66 30 25 0 122 49 162 81 39 32 140 100 186 126 28 15 237
233 237 246 0 5 19 28 43 51 23 23 56 61 72 85 17 24 49 71 73 105 23 33 49
69 57 79 14 16 14 18 0 23 -19 8 -20 24 -1 24 8 0 38 -12 68 -27z m-11942
-112 c-11 -33 -20 -71 -20 -85 0 -14 -5 -37 -11 -53 -6 -15 -19 -73 -30 -127
-22 -110 -30 -126 -66 -126 -30 0 -40 25 -23 64 7 17 28 74 47 126 67 186 114
292 121 271 2 -5 -6 -36 -18 -70z m403 4 c14 -13 11 -27 -24 -117 -21 -56 -54
-128 -74 -159 -19 -31 -35 -60 -35 -64 0 -19 -73 -115 -87 -115 -10 0 -13 5
-8 18 4 9 11 28 15 42 14 45 59 138 69 144 5 3 12 25 16 49 4 23 13 53 20 67
7 14 16 45 20 69 11 67 55 100 88 66z m3830 -57 c-6 -45 -24 -68 -55 -68 -17
0 -17 2 -3 37 16 39 42 73 56 73 4 0 5 -19 2 -42z m-3593 11 c0 -11 -13 -39
-29 -62 -28 -39 -45 -93 -76 -227 -6 -30 -25 -86 -42 -125 -31 -73 -56 -92
-79 -60 -14 19 -10 35 23 84 13 19 35 73 49 120 15 47 39 113 54 146 14 33 30
74 34 90 10 39 24 55 47 55 13 0 19 -7 19 -21z m210 -67 c0 -4 -16 -32 -35
-62 -26 -41 -35 -66 -35 -99 0 -28 -11 -68 -30 -108 -17 -36 -34 -79 -37 -96
-8 -43 -41 -97 -59 -97 -23 0 -29 30 -10 59 41 62 146 324 146 364 0 9 7 23
16 31 16 17 44 22 44 8z m51 -74 c-6 -17 -11 -51 -11 -76 0 -52 -7 -78 -62
-232 -27 -75 -27 -114 1 -144 l22 -24 -34 -26 c-19 -15 -86 -54 -148 -88 -63
-33 -167 -95 -231 -137 -190 -124 -270 -174 -332 -209 -33 -19 -80 -49 -104
-68 -45 -34 -75 -41 -100 -25 -10 6 -12 19 -5 50 6 32 15 46 38 58 17 9 37 20
45 25 8 4 27 13 43 19 15 6 27 14 27 18 0 4 35 27 78 51 42 24 93 53 112 65
35 22 113 69 153 92 11 6 36 23 56 37 20 15 77 53 126 86 158 104 167 112 181
155 6 22 30 96 52 165 22 69 42 141 45 161 6 43 50 117 55 93 2 -8 -1 -29 -7
-46z m144 31 c6 -9 -118 -370 -148 -428 -7 -14 -18 -26 -26 -29 -25 -8 -4 82
39 168 31 62 40 91 40 132 0 47 12 119 25 156 5 15 61 16 70 1z m5639 -75 c28
-28 15 -56 -46 -97 -49 -34 -64 -36 -170 -22 -52 7 -109 10 -126 7 -49 -7 -39
12 26 52 79 48 105 56 197 65 44 5 85 9 92 10 6 0 19 -6 27 -15z m-5385 -53
c12 -8 11 -21 -8 -83 -12 -40 -29 -88 -37 -106 -8 -18 -19 -66 -25 -105 -6
-40 -16 -82 -22 -94 -6 -13 -7 -26 -4 -30 13 -13 -16 -33 -49 -33 -20 0 -43 9
-61 24 l-28 25 21 58 c12 32 35 90 52 128 17 39 37 99 44 134 7 36 19 70 26
78 15 15 70 17 91 4z m107 -56 c4 -8 1 -22 -6 -30 -22 -26 -46 -130 -49 -210
-5 -134 -13 -170 -38 -173 -35 -5 -46 29 -38 117 7 78 29 166 66 259 15 37 27
52 40 52 11 0 22 -7 25 -15z m160 -10 c31 -14 65 -25 76 -25 25 0 25 0 -41
-190 -28 -80 -51 -158 -51 -175 0 -53 -19 -105 -38 -105 -24 0 -92 48 -92 64
0 8 -6 19 -14 25 -14 12 -14 82 -1 181 6 48 61 218 76 236 15 19 19 18 85 -11z
m867 -60 c20 -8 37 -20 37 -25 0 -16 -30 -24 -41 -13 -7 7 -24 7 -47 2 -20 -5
-54 -9 -75 -9 l-37 0 21 43 c35 68 37 70 73 42 18 -13 49 -31 69 -40z m-608
35 c10 -11 24 -20 30 -20 7 0 18 -7 25 -14 9 -12 8 -21 -4 -43 -27 -50 -57
-117 -73 -163 -19 -57 -13 -217 11 -272 15 -35 15 -38 -2 -47 -10 -5 -42 -13
-70 -17 -65 -8 -93 8 -122 73 -37 82 -15 207 67 388 25 55 53 108 61 118 20
23 55 22 77 -3z m5145 -19 c50 -25 66 -62 49 -114 -8 -23 -23 -52 -34 -65 -19
-22 -22 -22 -96 -11 -57 8 -95 8 -150 0 -169 -27 -161 -28 -134 19 17 30 19
76 4 119 -9 26 -9 36 3 47 34 34 293 38 358 5z m-921 3 c30 -6 61 -44 61 -73
0 -5 -23 -37 -50 -70 -37 -44 -58 -61 -75 -61 -73 0 -234 -42 -307 -79 l-78
-40 0 27 c0 37 25 81 86 150 92 104 251 168 363 146z m458 -20 c30 -19 49 -51
57 -95 5 -28 2 -42 -15 -63 -22 -27 -24 -28 -95 -21 -82 7 -153 -8 -234 -51
-53 -28 -68 -29 -98 -8 -35 24 -30 81 11 130 18 21 41 51 50 67 10 15 26 27
38 27 12 0 35 6 52 14 18 8 41 16 52 19 38 7 160 -5 182 -19z m-4384 0 c33 -5
37 -9 37 -34 0 -15 -7 -47 -16 -71 -14 -41 -35 -140 -50 -249 -10 -64 -10
-121 -2 -151 7 -24 3 -28 -65 -63 -39 -20 -109 -62 -154 -94 -45 -31 -117 -82
-160 -112 -43 -30 -109 -85 -148 -121 -146 -137 -224 -199 -251 -199 -15 0
-44 -5 -66 -12 -29 -8 -41 -9 -50 0 -9 9 7 30 65 84 151 143 213 196 297 253
46 32 109 79 140 105 30 26 86 64 123 84 93 51 100 69 59 152 -38 77 -42 146
-13 241 21 69 71 158 104 186 22 18 37 18 150 1z m407 -34 c0 -5 -4 -10 -9
-10 -6 0 -13 5 -16 10 -3 6 1 10 9 10 9 0 16 -4 16 -10z m-118 -97 c16 -3 32
-13 35 -21 6 -14 -45 -119 -73 -152 -7 -8 -20 -44 -29 -80 -22 -85 -15 -157
23 -249 l30 -72 -48 -24 c-27 -14 -51 -29 -55 -35 -4 -6 -27 -21 -53 -34 -26
-14 -98 -59 -161 -100 -63 -42 -119 -76 -123 -76 -5 0 -27 -12 -51 -27 -61
-39 -96 -59 -147 -82 -81 -38 -127 -67 -183 -116 -16 -15 -21 -15 -35 -2 -9 8
-28 18 -42 22 -85 25 -93 69 -22 137 26 25 61 54 77 65 41 25 268 194 280 209
6 7 28 22 49 34 21 12 60 39 85 60 25 21 71 46 102 55 54 17 56 17 98 -5 39
-19 45 -20 59 -6 14 13 13 18 -3 43 -10 15 -29 41 -44 56 -24 26 -26 35 -26
115 0 91 21 254 38 286 8 17 17 18 99 12 49 -4 103 -10 120 -13z m916 -7 c15
-8 46 -43 69 -78 92 -138 234 -209 688 -342 146 -43 254 -57 441 -57 l142 0
37 -40 c47 -52 45 -84 -4 -85 -31 0 -54 -17 -64 -47 -2 -7 -9 -7 -22 0 -13 8
-33 6 -73 -5 -44 -12 -60 -13 -87 -3 -29 10 -39 9 -72 -7 -21 -11 -64 -25 -96
-32 -68 -14 -212 -19 -223 -7 -4 4 -7 25 -6 46 l3 38 -52 7 c-29 4 -65 14 -80
22 -15 7 -44 14 -64 14 -28 0 -38 5 -42 19 -5 19 -96 71 -124 71 -9 0 -22 7
-30 16 -8 9 -21 13 -35 10 -16 -4 -27 0 -38 15 -10 14 -20 19 -34 15 -15 -5
-22 -1 -27 13 -4 13 -12 18 -21 14 -10 -4 -17 2 -21 16 -3 12 -16 24 -29 27
-13 3 -28 12 -35 20 -6 8 -20 14 -30 14 -10 0 -22 6 -26 14 -11 19 -80 66 -98
66 -7 0 -15 10 -17 23 -2 17 -11 23 -34 25 -21 2 -34 10 -37 22 -3 10 -23 31
-45 47 -22 15 -47 40 -56 55 l-17 27 58 16 c32 9 72 22 88 30 39 18 79 18 113
1z m1675 -16 c32 -37 51 -94 43 -126 -13 -49 -223 -130 -387 -149 -50 -6 -60
-4 -78 14 -41 41 -21 95 48 131 13 7 47 31 75 54 100 81 146 101 243 105 23 1
37 -6 56 -29z m-2127 5 c-11 -8 -22 -12 -25 -9 -6 6 19 24 34 24 6 -1 1 -7 -9
-15z m-254 -34 c27 -22 64 -45 83 -51 18 -6 36 -18 39 -27 4 -8 -12 -55 -34
-103 -34 -75 -40 -96 -40 -156 0 -38 5 -96 10 -129 l10 -60 -50 -72 c-28 -39
-50 -77 -50 -84 0 -6 -7 -17 -16 -24 -9 -6 -22 -34 -28 -61 -12 -46 -19 -53
-119 -129 -94 -71 -275 -182 -349 -213 -24 -10 -30 -8 -55 18 -53 54 -85 100
-81 116 2 10 23 28 47 41 25 13 52 30 61 38 9 8 22 15 28 15 6 0 15 6 19 13 4
8 22 20 38 28 50 25 231 176 264 221 37 50 41 111 12 185 -29 75 -34 144 -16
214 27 103 125 259 163 259 8 0 36 -18 64 -39z m4737 -12 c24 -5 65 -12 90
-14 87 -8 251 -59 258 -81 5 -15 -75 -40 -91 -28 -57 42 -75 48 -159 60 -51 7
-110 13 -133 14 -48 0 -90 34 -64 50 19 12 44 12 99 -1z m-4396 -53 c26 -24
47 -51 47 -60 0 -8 10 -21 23 -27 12 -6 33 -22 47 -34 14 -12 42 -28 63 -35
20 -6 37 -18 37 -26 0 -8 -21 -27 -46 -42 -143 -84 -313 -231 -346 -298 -12
-23 -77 -266 -103 -384 -4 -21 -32 -38 -168 -103 -89 -42 -195 -88 -236 -102
-86 -29 -81 -28 -81 -15 0 5 20 18 44 28 24 11 47 25 50 31 10 16 -22 25 -47
13 -96 -46 -157 -70 -161 -63 -3 5 54 44 127 87 138 82 253 160 299 202 27 25
54 24 30 0 -14 -14 -16 -48 -3 -48 14 0 60 40 72 62 9 17 8 24 -5 33 -15 11
-14 15 5 39 57 73 133 185 146 214 14 35 12 53 -19 151 -23 71 -21 141 6 204
9 20 23 53 31 73 26 60 95 144 119 144 11 0 42 -20 69 -44z m3942 34 c54 0 69
-53 35 -120 -22 -44 -28 -46 -133 -60 -110 -14 -136 1 -137 78 0 13 -12 34
-26 49 -30 30 -27 34 23 39 21 2 72 8 113 12 41 5 81 8 88 6 8 -2 24 -4 37 -4z
m289 4 c12 -4 16 -20 16 -54 0 -45 -2 -49 -37 -65 -21 -10 -62 -18 -93 -19
l-55 -1 3 64 c1 38 7 68 15 73 14 9 128 11 151 2z m-716 -24 c44 0 142 -92
142 -134 0 -38 -28 -94 -56 -113 -26 -17 -111 -12 -222 13 -35 8 -74 14 -87
14 -28 0 -45 26 -45 69 0 16 -4 40 -9 54 -10 25 -7 34 23 57 22 17 172 50 201
44 11 -2 35 -4 53 -4z m-425 -24 c79 -33 132 -152 93 -211 -27 -42 -75 -49
-255 -36 -167 11 -197 19 -238 63 -35 38 -39 74 -11 99 73 65 332 119 411 85z
m-515 -18 c-8 -13 -59 -45 -113 -73 -59 -30 -107 -62 -121 -81 -21 -27 -22
-34 -13 -70 15 -55 42 -80 137 -126 86 -41 205 -71 355 -88 291 -33 775 -51
952 -35 148 14 244 27 290 40 28 8 91 24 140 36 151 35 198 52 250 91 61 45
114 68 155 68 41 0 38 -17 -13 -68 -89 -90 -113 -102 -267 -146 -335 -93 -528
-111 -870 -81 -55 5 -334 21 -610 36 -224 12 -338 37 -433 93 -51 29 -143 133
-153 171 -14 57 25 112 136 190 63 45 111 64 159 65 32 0 33 -1 19 -22z m2867
2 c12 -10 15 -32 13 -106 l-2 -94 -35 -10 c-71 -19 -207 -42 -251 -44 -44 -1
-45 0 -43 29 4 76 31 228 41 234 21 13 260 5 277 -9z m-967 -25 c50 -4 99 -13
109 -20 16 -12 13 -14 -25 -25 -55 -14 -187 -74 -196 -88 -9 -15 31 -39 79
-47 62 -10 73 -19 50 -45 -39 -43 -244 -118 -385 -140 -41 -6 -95 -16 -120
-21 -213 -43 -736 -47 -1015 -8 -189 27 -332 59 -412 93 -34 14 -71 26 -81 26
-28 0 -102 59 -102 81 0 25 38 61 98 92 93 48 132 43 132 -15 0 -49 51 -91
135 -112 39 -10 86 -27 105 -39 39 -25 119 -49 260 -79 128 -28 523 -30 640
-4 41 9 87 16 102 16 23 0 105 19 278 63 29 8 60 27 89 54 42 40 44 44 38 86
-5 33 -1 51 15 78 37 62 57 78 87 69 15 -4 69 -11 119 -15z m611 -21 c25 -18
25 -17 4 -144 -8 -43 -10 -44 -58 -58 -27 -7 -73 -20 -100 -28 -28 -7 -73 -28
-100 -46 -161 -104 -194 -117 -288 -118 -53 0 -61 18 -14 31 40 11 177 139
177 167 0 19 -5 22 -37 22 -21 0 -69 8 -108 16 -38 9 -85 19 -102 21 -58 9
-35 29 72 63 84 28 171 43 365 65 74 9 140 17 145 19 17 7 20 6 44 -10z
m-3538 -6 c2 -31 -3 -84 -10 -90 -3 -4 -24 -3 -44 3 -33 9 -38 14 -35 36 2 18
14 32 38 44 41 22 50 23 51 7z m-3213 -59 c46 -11 102 -52 102 -73 0 -6 -12
-19 -28 -28 -15 -10 -48 -32 -73 -50 -50 -36 -357 -241 -429 -287 -25 -16 -79
-47 -121 -70 -42 -22 -93 -57 -114 -76 -42 -40 -64 -42 -81 -7 -20 39 10 95
90 169 66 61 176 143 192 143 28 0 276 186 327 246 42 48 56 52 135 33z m5820
-15 c27 -4 32 -9 32 -34 0 -34 -43 -74 -98 -90 -36 -10 -243 -50 -447 -87
-151 -27 -437 -16 -595 23 l-75 18 40 7 c22 4 67 15 100 24 89 25 141 28 288
16 161 -13 226 -1 265 50 24 30 27 31 80 24 63 -8 175 11 212 35 14 10 32 19
39 22 16 5 105 0 159 -8z m-3865 -114 c13 0 17 -9 17 -36 0 -59 -161 -294
-290 -422 -75 -75 -197 -159 -211 -145 -13 13 5 94 48 219 41 120 75 166 188
253 44 34 107 85 139 112 54 44 61 47 76 34 9 -8 24 -15 33 -15z m-1750 6 c15
-4 27 -10 27 -14 0 -4 -25 -23 -55 -42 -31 -19 -84 -54 -118 -78 -34 -23 -98
-67 -142 -96 -44 -30 -96 -71 -115 -91 -19 -20 -51 -46 -70 -57 -81 -49 -108
-98 -52 -98 19 0 62 28 149 95 67 52 125 95 129 95 3 0 33 18 65 40 32 22 63
40 68 40 6 0 30 17 55 38 131 110 142 115 201 92 22 -8 24 -13 15 -30 -6 -11
-23 -26 -39 -34 -15 -8 -48 -31 -72 -51 -49 -40 -47 -38 -179 -156 -52 -46
-120 -104 -150 -129 -30 -25 -63 -55 -72 -66 -10 -12 -30 -24 -45 -27 -16 -3
-45 -19 -65 -35 -21 -16 -56 -32 -79 -36 -70 -11 -98 -31 -105 -76 -6 -39 -8
-40 -45 -40 -21 0 -41 -5 -44 -11 -5 -7 -13 -5 -25 6 -15 14 -18 14 -30 0 -11
-14 -14 -14 -24 0 -10 14 -17 12 -54 -17 -23 -18 -42 -36 -42 -40 0 -4 -7 -8
-16 -8 -13 0 -12 5 5 26 28 36 27 54 -4 54 -14 0 -25 4 -25 9 0 14 44 39 83
46 39 8 63 28 69 60 2 13 21 25 63 40 115 40 158 72 129 96 -14 11 -29 9 -102
-16 -47 -17 -106 -43 -131 -60 -63 -41 -172 -152 -196 -199 l-19 -38 24 -20
c23 -19 23 -20 6 -49 -38 -64 -5 -292 56 -381 43 -62 -2 -67 -58 -5 -59 64
-131 250 -121 312 10 62 140 300 198 361 44 47 197 144 320 202 68 32 141 73
160 90 20 18 44 32 52 32 9 0 19 4 22 10 3 5 50 41 103 79 53 39 129 97 167
130 39 33 77 58 85 56 8 -2 27 -6 43 -9z m1877 -92 c5 -13 25 -30 43 -38 19
-8 38 -19 41 -25 4 -6 16 -11 26 -11 18 0 62 -16 120 -45 14 -6 48 -18 75 -25
28 -8 66 -23 85 -35 19 -12 46 -26 60 -30 14 -4 32 -13 40 -19 43 -34 203 -86
263 -86 25 0 49 -4 52 -10 11 -18 41 -11 65 15 17 18 32 24 59 22 21 -1 56 7
79 17 33 15 47 17 65 9 18 -9 34 -6 71 10 36 15 54 18 74 11 24 -9 26 -13 23
-64 -4 -74 -22 -109 -82 -153 -66 -50 -74 -52 -105 -28 -43 33 -61 27 -68 -25
-3 -20 -32 -31 -86 -33 -33 -1 -36 1 -35 27 0 33 -33 42 -59 17 -20 -21 -21
-45 -1 -45 23 0 18 -17 -7 -24 -29 -7 -133 -8 -179 0 -32 5 -38 11 -48 45 -7
22 -18 39 -26 39 -8 0 -33 -24 -56 -52 -47 -60 -174 -170 -229 -198 -14 -7
-34 -20 -45 -30 -11 -10 -54 -32 -95 -50 -41 -18 -88 -38 -105 -46 -60 -26
-191 -66 -245 -73 -30 -5 -95 -20 -145 -33 -129 -37 -191 -49 -265 -55 l-65
-4 -48 140 c-27 78 -47 151 -45 163 2 18 19 28 83 51 80 29 131 63 278 184
127 104 149 131 277 331 120 188 122 191 137 185 8 -3 19 -16 23 -29z m3895
-183 c-14 -12 -175 -64 -365 -117 -91 -25 -170 -50 -175 -54 -12 -10 -625 -5
-725 5 -129 13 -196 33 -432 132 -40 17 -50 33 -20 33 9 0 44 -7 77 -15 33 -8
80 -14 105 -15 25 0 104 -6 175 -14 72 -8 218 -17 326 -20 108 -3 202 -8 210
-10 31 -11 228 -14 299 -4 41 5 93 11 115 12 57 3 217 32 305 55 83 21 119 26
105 12z m-6695 -7 c0 -4 -34 -44 -76 -90 -58 -64 -93 -93 -147 -121 -72 -38
-72 -38 -69 -76 3 -28 -2 -45 -16 -60 -31 -35 -58 -96 -76 -174 -26 -114 -19
-178 33 -332 12 -35 20 -65 18 -68 -11 -11 -68 77 -98 151 -32 76 -34 88 -34
196 0 131 13 186 55 234 17 18 30 38 30 43 0 20 66 85 130 128 39 26 76 58 84
73 19 36 166 121 166 96z m1671 -68 c-17 -20 -91 -70 -96 -64 -5 5 86 76 99
77 5 1 3 -5 -3 -13z m-2351 -54 c0 -5 -17 -46 -37 -93 -40 -92 -46 -153 -30
-306 8 -82 -5 -99 -24 -30 -14 52 -5 337 12 370 25 48 79 88 79 59z m2240 -26
c0 -5 -177 -116 -185 -116 -13 0 -3 18 13 24 9 3 49 26 87 51 66 42 85 51 85
41z m-1950 -55 c0 -6 -4 -13 -10 -16 -19 -12 -109 -211 -126 -278 -14 -57 -15
-81 -6 -140 5 -40 13 -80 17 -89 12 -31 -13 -20 -42 19 -24 31 -29 47 -32 115
-3 69 1 90 34 185 20 60 41 112 46 118 5 5 9 18 9 30 1 23 18 49 40 58 24 9
70 8 70 -2z m308 -3 c15 -15 16 -55 1 -63 -17 -11 -79 5 -79 20 0 13 45 55 59
55 4 0 12 -5 19 -12z m-481 -25 c-3 -16 -20 -68 -37 -118 -27 -73 -33 -110
-37 -197 -6 -126 -19 -134 -55 -30 -58 174 1 366 116 371 15 1 17 -4 13 -26z
m433 -112 c0 -6 -27 -58 -60 -118 -75 -134 -84 -165 -77 -275 4 -74 10 -99 41
-164 20 -42 34 -80 30 -83 -13 -12 -64 65 -103 155 -53 124 -63 227 -32 324
21 62 24 67 86 103 35 21 69 45 76 53 13 16 39 19 39 5z m692 -28 c15 -15 28
-32 28 -38 0 -7 -25 -29 -55 -50 -31 -21 -66 -50 -78 -65 -19 -23 -28 -27 -59
-23 -28 4 -38 10 -38 23 0 28 32 78 57 89 13 6 23 19 23 28 0 16 61 61 84 63
6 0 23 -12 38 -27z m3428 3 c0 -8 -5 -27 -11 -42 -7 -20 -7 -43 1 -79 15 -66
49 -171 66 -204 8 -14 14 -40 14 -57 0 -17 9 -51 19 -75 18 -39 19 -53 10
-124 -5 -44 -10 -94 -9 -111 0 -18 -17 -62 -40 -104 -22 -40 -40 -76 -40 -79
0 -3 -38 -45 -84 -93 -120 -122 -122 -127 -101 -249 16 -100 13 -161 -10 -189
-7 -8 -22 -33 -35 -56 -12 -23 -56 -70 -98 -104 -60 -50 -90 -68 -141 -83
-132 -37 -246 -53 -500 -70 l-63 -5 -67 57 c-36 31 -81 67 -98 80 -36 25 -43
49 -15 57 71 23 190 114 240 182 61 87 49 92 -211 92 -158 0 -216 4 -258 16
-80 24 -209 112 -257 176 -111 148 -142 238 -140 404 2 126 9 144 64 143 41
-1 125 11 149 21 11 5 63 14 115 20 59 7 108 19 128 31 18 10 42 19 54 19 37
0 186 50 223 75 20 14 44 25 53 25 21 0 204 107 250 146 18 16 53 49 79 72 42
40 49 43 82 37 98 -19 351 -2 386 24 5 5 41 11 79 14 43 4 80 14 100 27 36 23
66 26 66 6z m-3166 -31 c15 -19 40 -42 57 -50 37 -19 37 -38 0 -64 l-29 -21
-16 25 c-9 14 -25 25 -34 25 -10 0 -29 11 -42 25 -13 14 -31 25 -41 25 -10 0
-19 10 -22 26 -5 29 16 42 69 43 25 1 38 -7 58 -34z m442 -55 l11 -74 -48 -48
c-40 -40 -53 -47 -74 -42 -24 6 -53 -11 -107 -63 -16 -14 -18 -15 -18 -1 0 9
16 28 35 42 19 15 35 34 35 42 0 27 -30 27 -64 0 -35 -27 -56 -33 -56 -17 0 5
7 14 15 21 8 7 15 23 15 36 0 19 -5 24 -26 24 l-25 0 21 30 c12 17 29 30 39
30 9 0 22 5 29 12 14 14 184 86 197 84 5 -2 15 -36 21 -76z m9427 -20 c-19
-72 -70 -222 -97 -285 -13 -27 -33 -84 -46 -125 -13 -41 -31 -93 -42 -116 -10
-22 -18 -46 -18 -53 0 -7 -18 -54 -41 -105 -39 -87 -67 -170 -103 -301 -14
-53 -26 -128 -56 -346 -14 -102 -34 -114 -150 -88 -107 23 -388 59 -457 59
-41 0 -48 13 -29 52 9 17 16 36 16 42 1 6 9 29 20 51 11 22 19 49 20 61 0 11
9 46 19 76 20 58 45 248 57 423 3 55 7 114 9 130 1 17 5 75 9 130 4 55 12 140
18 189 14 104 5 97 168 120 63 9 171 28 240 42 69 14 148 29 175 34 88 15 256
71 280 92 18 16 22 -26 8 -82z m-10018 20 c-3 -5 -11 -10 -16 -10 -6 0 -7 5
-4 10 3 6 11 10 16 10 6 0 7 -4 4 -10z m6586 -21 c34 -36 38 -81 14 -149 -8
-23 -15 -59 -15 -80 0 -92 -4 -97 -98 -127 l-85 -27 -29 35 c-56 66 -75 110
-81 187 -7 93 -1 101 135 143 57 18 107 36 113 41 13 12 14 11 46 -23z m-5877
-14 c28 -26 34 -45 13 -45 -12 0 -57 51 -57 65 0 12 19 4 44 -20z m516 -89 c0
-8 8 -13 17 -12 13 1 26 -22 51 -89 51 -137 58 -163 46 -183 -6 -9 -60 -51
-121 -92 -61 -41 -121 -84 -132 -94 -29 -27 -26 -5 9 61 33 61 39 113 15 133
-13 11 -20 10 -43 -8 -86 -67 -222 -144 -222 -124 1 16 18 31 68 56 48 24 65
47 44 60 -5 3 -46 -11 -93 -29 -130 -53 -133 -45 -16 47 148 118 157 141 63
152 -58 8 -73 22 -33 31 12 3 51 12 87 20 36 8 101 30 145 49 88 38 115 43
115 22z m-1686 -2 c10 -4 16 -18 16 -38 0 -18 5 -37 12 -44 15 -15 50 -16 64
-2 7 7 25 7 50 2 39 -8 39 -9 34 -48 -3 -21 -5 -106 -5 -189 l1 -150 47 -99
c26 -54 47 -102 47 -107 0 -12 -47 -12 -54 0 -3 4 -23 11 -43 15 -30 5 -48 18
-86 64 -55 64 -124 178 -144 234 -10 29 -11 79 -6 203 6 163 6 165 29 165 12
0 29 -3 38 -6z m346 0 c0 -3 -9 -17 -20 -31 -24 -31 -26 -71 -4 -80 8 -3 28 4
44 16 39 28 47 27 42 -8 -3 -22 2 -36 20 -53 19 -19 23 -32 21 -73 -6 -124 -2
-281 7 -316 6 -21 24 -68 40 -105 17 -36 30 -70 30 -75 0 -15 -52 -10 -105 10
-94 36 -172 146 -196 276 -15 80 3 350 26 395 14 27 95 64 95 44z m6303 -34
c5 -19 12 -51 17 -70 13 -49 100 -182 100 -152 0 12 4 22 9 22 14 0 21 -26 9
-38 -7 -7 -6 -16 1 -30 15 -28 14 -42 -3 -42 -26 0 -119 124 -164 218 -42 90
-43 94 -26 113 25 28 47 20 57 -21z m-5393 16 c0 -2 -24 -19 -54 -39 -58 -39
-116 -105 -134 -152 -12 -35 -32 -191 -32 -258 0 -87 84 -282 153 -354 22 -24
46 -56 53 -71 6 -16 19 -32 28 -35 16 -6 23 -37 9 -37 -5 1 -43 9 -86 19 -84
20 -153 59 -166 94 -5 12 -18 30 -28 40 -32 28 -91 166 -107 247 -8 41 -19
104 -26 140 -15 81 -13 176 5 210 12 23 74 58 110 61 19 1 45 32 45 53 0 24
65 66 120 77 38 7 110 11 110 5z m-560 -21 c0 -3 -12 -24 -27 -46 -26 -40 -27
-42 -8 -55 10 -8 22 -14 27 -14 4 0 8 -16 8 -35 0 -41 18 -46 57 -15 54 42 65
24 54 -87 -4 -43 -3 -138 3 -213 l11 -135 58 -103 c32 -57 67 -108 78 -115 10
-6 19 -18 19 -25 0 -23 -107 -3 -185 33 -85 40 -214 154 -237 212 -46 114 -60
189 -53 273 3 30 7 91 9 135 3 44 10 104 16 133 11 50 13 52 29 38 23 -21 50
-20 86 4 29 19 55 26 55 15z m-824 -120 c-4 -100 -2 -124 18 -193 25 -82 65
-170 97 -211 11 -13 17 -26 15 -28 -9 -9 -94 57 -136 104 -92 104 -181 383
-122 383 9 0 37 14 62 30 71 47 72 46 66 -85z m6682 92 c3 -16 -35 -44 -45
-33 -4 3 -1 18 6 32 12 27 34 28 39 1z m-198 -16 c0 -18 -7 -20 -55 -18 -30 1
-55 5 -55 9 0 14 36 27 73 28 30 0 37 -4 37 -19z m-5082 -69 l64 -18 -65 -57
c-36 -31 -69 -57 -73 -57 -5 0 -27 -19 -51 -42 -23 -23 -45 -39 -49 -36 -11
11 17 122 42 165 21 37 47 62 64 63 3 0 34 -8 68 -18z m4758 3 c-11 -8 -28
-15 -38 -15 -10 0 -35 -8 -56 -19 -58 -29 -150 -53 -399 -101 -116 -23 -116
-23 -109 -11 6 10 123 40 176 46 19 2 105 26 190 53 177 57 184 59 225 61 28
0 29 0 11 -14z m-6968 -38 c4 -19 -62 -203 -83 -231 -16 -21 -35 -14 -35 14 0
17 61 185 82 223 11 21 32 18 36 -6z m7042 14 c0 -5 -11 -11 -25 -13 -26 -5
-35 6 -12 15 20 9 37 8 37 -2z m188 -8 c2 -8 -5 -13 -17 -13 -12 0 -21 6 -21
16 0 18 31 15 38 -3z m-103 -3 c3 -5 1 -10 -4 -10 -6 0 -11 5 -11 10 0 6 2 10
4 10 3 0 8 -4 11 -10z m394 -41 c-19 -12 -24 -2 -8 17 9 11 14 13 17 4 3 -7
-2 -16 -9 -21z m-7410 7 c14 -17 -5 -72 -32 -95 -10 -7 -17 -24 -17 -36 0 -32
-30 -178 -39 -187 -11 -12 -51 21 -51 41 0 25 78 261 91 277 15 18 33 18 48 0z
m7342 -6 c-25 -22 -51 -26 -51 -10 0 11 36 29 60 29 10 0 8 -6 -9 -19z m-91
-11 c0 -5 -10 -9 -21 -9 -18 0 -19 2 -9 15 12 15 30 12 30 -6z m-390 1 c0 -5
-4 -10 -10 -10 -5 0 -10 5 -10 10 0 6 5 10 10 10 6 0 10 -4 10 -10z m-6745
-47 c41 -20 42 -10 -15 -148 -23 -55 -48 -121 -56 -147 -17 -54 -25 -58 -48
-23 -35 53 -9 204 52 307 19 33 21 33 67 11z m6879 -4 c-3 -5 -10 -7 -15 -3
-5 3 -7 10 -3 15 3 5 10 7 15 3 5 -3 7 -10 3 -15z m436 1 c0 -5 -9 -10 -21
-10 -11 0 -17 5 -14 10 3 6 13 10 21 10 8 0 14 -4 14 -10z m-80 -10 c0 -5 -9
-10 -21 -10 -11 0 -17 5 -14 10 3 6 13 10 21 10 8 0 14 -4 14 -10z m-655 -10
c3 -5 -12 -18 -34 -30 -46 -23 -51 -24 -51 -10 0 6 5 10 11 10 6 0 22 9 36 20
30 23 30 23 38 10z m555 1 c0 -13 -29 -35 -37 -28 -7 8 15 37 28 37 5 0 9 -4
9 -9z m-490 -10 c0 -5 -7 -11 -15 -15 -9 -3 -15 0 -15 9 0 8 7 15 15 15 8 0
15 -4 15 -9z m417 -4 c-5 -15 -89 -59 -96 -51 -3 4 0 9 7 11 7 3 17 15 21 27
6 15 18 21 40 22 18 1 30 -3 28 -9z m-264 -12 c1 -5 -10 -11 -25 -13 -16 -2
-28 1 -28 7 0 20 49 26 53 6z m-4202 -25 c-2 -14 -5 -72 -8 -129 -6 -139 13
-207 85 -315 93 -139 169 -201 315 -255 44 -17 31 -28 -42 -35 -90 -9 -212 2
-280 26 -30 10 -66 18 -81 18 -36 0 -128 63 -175 120 -20 25 -42 50 -49 55
-28 23 -136 253 -136 290 0 12 38 39 175 127 22 14 69 48 105 77 69 55 97 62
91 21z m3864 10 c3 -5 -1 -10 -10 -10 -9 0 -13 5 -10 10 3 6 8 10 10 10 2 0 7
-4 10 -10z m-215 -14 c0 -3 -4 -8 -10 -11 -5 -3 -10 -1 -10 4 0 6 5 11 10 11
6 0 10 -2 10 -4z m658 -13 c-4 -19 -53 -41 -65 -29 -9 9 36 45 55 46 8 0 12
-8 10 -17z m-6788 -8 c35 -18 37 -36 11 -73 -46 -67 -77 -153 -96 -274 -6 -41
-29 -51 -40 -18 -3 11 -10 20 -14 20 -16 0 -21 99 -6 128 8 15 35 73 61 130
27 56 50 102 52 102 1 0 16 -7 32 -15z m6530 4 c0 -14 -88 -52 -106 -45 -7 3
-11 12 -8 21 10 25 114 48 114 24z m520 7 c0 -11 -19 -15 -25 -6 -3 5 1 10 9
10 9 0 16 -2 16 -4z m260 -6 c0 -5 -5 -10 -11 -10 -5 0 -7 5 -4 10 3 6 8 10
11 10 2 0 4 -4 4 -10z m-5245 -19 c6 -11 -53 -56 -63 -47 -3 4 7 18 23 31 35
29 32 27 40 16z m4135 -1 c0 -5 -2 -10 -4 -10 -3 0 -8 5 -11 10 -3 6 -1 10 4
10 6 0 11 -4 11 -10z m758 -1 c-2 -6 -8 -10 -13 -10 -5 0 -11 4 -13 10 -2 6 4
11 13 11 9 0 15 -5 13 -11z m-308 -14 c-14 -17 -56 -20 -65 -6 -6 10 16 18 54
20 20 1 21 -1 11 -14z m490 5 c0 -5 -7 -10 -16 -10 -8 0 -12 5 -9 10 3 6 10
10 16 10 5 0 9 -4 9 -10z m-815 -10 c-3 -5 -16 -10 -28 -10 -18 0 -19 2 -7 10
20 13 43 13 35 0z m-4525 -33 c0 -34 8 -38 47 -22 52 22 55 19 33 -24 -17 -34
-17 -41 -5 -51 17 -14 70 -7 122 18 40 19 47 13 57 -52 4 -22 20 -83 37 -134
35 -106 88 -182 173 -252 50 -40 54 -46 39 -57 -21 -16 -134 -17 -205 -2 -61
13 -102 41 -177 122 -112 121 -182 245 -216 384 -17 73 -10 80 83 92 6 0 12
-9 12 -22z m-1614 -17 c22 0 -23 -98 -89 -193 -14 -21 -33 -60 -42 -87 -9 -28
-23 -50 -31 -50 -19 0 -44 53 -44 95 0 42 52 160 99 223 l31 42 36 -15 c20 -8
38 -15 40 -15z m7059 10 c-3 -5 -11 -10 -16 -10 -6 0 -7 5 -4 10 3 6 11 10 16
10 6 0 7 -4 4 -10z m75 0 c0 -5 -4 -10 -10 -10 -5 0 -10 5 -10 10 0 6 5 10 10
10 6 0 10 -4 10 -10z m-160 -4 c0 -3 -4 -8 -10 -11 -5 -3 -10 -1 -10 4 0 6 5
11 10 11 6 0 10 -2 10 -4z m45 -46 c3 -5 -3 -10 -15 -10 -12 0 -18 5 -15 10 3
6 10 10 15 10 5 0 12 -4 15 -10z m-6869 -16 c19 -9 34 -20 34 -24 0 -4 -16
-30 -35 -56 -37 -52 -68 -99 -131 -201 -41 -65 -66 -78 -90 -45 -29 37 -5 107
80 237 18 28 41 62 50 78 19 31 43 34 92 11z m173 -91 c42 -27 48 -37 31 -48
-6 -4 -21 -28 -34 -54 -14 -26 -32 -53 -41 -61 -22 -18 -61 -97 -69 -140 -14
-76 -33 -75 -91 5 -42 59 -43 78 -10 127 14 20 25 40 25 44 0 4 15 30 34 58
18 28 41 64 50 79 21 34 42 32 105 -10z m4146 -81 c39 -28 90 -68 115 -90 47
-42 119 -82 145 -82 22 0 18 -16 -10 -34 -36 -24 -97 -119 -158 -247 l-53
-114 -86 -17 c-47 -10 -119 -18 -159 -18 -75 0 -173 20 -192 39 -7 7 -1 35 20
88 29 73 30 85 26 170 l-6 91 48 62 c26 34 54 64 62 67 7 3 37 41 64 84 l51
79 31 -14 c18 -7 64 -36 102 -64z m-3955 5 c62 -22 63 -25 27 -70 -45 -56
-117 -177 -117 -196 0 -9 7 -38 15 -65 16 -52 8 -72 -23 -61 -8 3 -18 5 -23 5
-5 0 -23 29 -40 64 -17 36 -39 72 -50 82 -21 19 -25 49 -9 59 6 4 31 46 55 95
24 48 50 90 57 93 23 10 72 7 108 -6z m244 -74 c78 -13 79 -27 5 -123 -35 -45
-75 -104 -88 -130 -31 -63 -52 -68 -88 -21 -15 20 -40 48 -55 63 -16 14 -28
37 -28 51 0 13 23 59 52 102 l51 77 51 -6 c28 -3 73 -9 100 -13z m284 -76 c68
-33 71 -49 20 -110 -24 -29 -59 -77 -77 -107 -18 -31 -41 -67 -51 -80 l-19
-25 -43 41 c-24 23 -57 49 -75 58 -61 31 -61 49 0 124 29 37 64 82 76 100 22
31 24 32 74 26 29 -3 71 -16 95 -27z m3882 -45 c0 -7 -188 -158 -260 -210 -34
-24 -32 6 3 45 18 21 50 62 71 91 21 29 52 59 70 67 34 15 116 20 116 7z
m-3608 -58 c61 -4 99 -11 101 -19 6 -13 -140 -233 -163 -248 -11 -6 -29 0 -65
22 -28 17 -63 39 -79 49 -15 9 -37 24 -49 33 l-20 16 23 39 c13 21 40 58 60
82 31 38 39 43 65 38 17 -4 74 -9 127 -12z m288 -65 c25 -5 70 -14 100 -19 83
-16 85 -17 68 -38 -40 -45 -58 -112 -30 -112 5 0 26 25 47 56 l39 56 66 -8
c36 -5 122 -8 193 -7 70 1 127 -1 127 -5 0 -4 -30 -39 -67 -77 -36 -39 -81
-94 -100 -122 -18 -29 -44 -60 -58 -69 -23 -15 -26 -14 -95 44 -40 33 -83 63
-98 67 -14 3 -38 15 -53 26 -15 10 -30 19 -34 19 -4 0 -26 -21 -50 -47 l-44
-48 -38 22 c-63 38 -156 81 -185 88 -16 3 -28 10 -28 16 0 22 71 128 105 158
31 27 38 29 63 20 15 -6 47 -15 72 -20z m765 -114 c101 -28 233 -33 310 -13
24 7 47 10 50 7 3 -3 -6 -32 -20 -63 -31 -70 -193 -236 -230 -236 -12 0 -54
18 -91 40 -38 22 -105 54 -149 71 -44 17 -83 33 -87 35 -4 3 17 37 47 76 30
39 55 77 55 84 0 7 6 15 13 17 6 3 12 6 12 6 0 1 41 -10 90 -24z m755 15 c43
-27 -111 -163 -198 -174 -40 -5 -130 -61 -187 -117 -44 -43 -57 -50 -102 -54
-39 -4 -52 -2 -57 10 -3 8 -2 15 3 15 5 0 38 29 75 64 48 47 79 89 115 158 35
67 55 95 72 99 37 11 262 10 279 -1z m-2050 -80 c19 -11 54 -30 78 -41 40 -19
61 -49 25 -34 -10 3 -56 15 -103 27 -94 22 -104 27 -94 51 8 23 52 21 94 -3z
m337 -58 c138 -72 173 -93 168 -102 -9 -14 -111 -1 -160 20 -22 10 -56 32 -75
50 -33 31 -34 33 -15 46 24 18 21 18 82 -14z m8663 -73 c74 -11 155 -22 180
-24 25 -2 62 -11 84 -20 38 -16 38 -16 20 -37 -33 -37 -77 -48 -186 -48 -103
0 -103 0 -190 46 -93 48 -112 75 -65 94 12 5 22 9 22 9 0 1 61 -8 135 -20z
m-7839 -44 c19 -10 41 -23 49 -30 8 -7 44 -25 80 -40 70 -31 87 -41 78 -50 -3
-3 -36 6 -74 20 -100 39 -213 74 -256 81 -39 7 -51 29 -20 38 31 8 109 -2 143
-19z m749 -85 c69 -77 64 -86 -25 -44 -84 39 -124 114 -61 114 17 0 41 -20 86
-70z m6785 13 c-13 -103 -32 -123 -84 -87 -19 14 -22 22 -16 53 12 64 32 83
94 90 10 1 12 -11 6 -56z m79 5 c13 -51 7 -97 -15 -109 -39 -20 -49 30 -20
104 13 33 27 35 35 5z m104 -28 c33 -21 39 -38 22 -71 -8 -13 -21 -19 -45 -19
-32 0 -35 3 -35 29 0 16 -4 41 -10 55 -8 23 -7 26 13 26 12 0 37 -9 55 -20z
m-308 -23 c0 -38 -6 -48 -26 -40 -17 6 -18 45 -2 61 20 20 28 14 28 -21z m460
-21 c0 -18 -59 -29 -76 -15 -21 17 -7 29 37 29 26 0 39 -4 39 -14z m90 -7 c0
-6 -10 -29 -22 -50 -15 -28 -28 -39 -45 -39 -28 0 -29 10 -3 43 11 14 20 30
20 35 0 11 16 20 38 21 6 1 12 -4 12 -10z m90 -9 c0 -24 -42 -70 -65 -70 -21
0 -19 8 11 52 29 42 54 50 54 18z m60 -5 c0 -8 -7 -15 -15 -15 -16 0 -20 12
-8 23 11 12 23 8 23 -8z m-877 -30 c-7 -21 -13 -19 -13 6 0 11 4 18 10 14 5
-3 7 -12 3 -20z m607 -14 c0 -14 -41 -41 -62 -41 -18 0 -25 29 -11 43 10 11
73 8 73 -2z m-430 -26 c0 -20 -5 -25 -25 -25 -18 0 -25 5 -25 18 0 24 8 32 32
32 13 0 18 -7 18 -25z m319 9 c7 -6 -61 -64 -75 -64 -19 0 -18 45 2 64 13 14
57 14 73 0z m-223 -29 c-3 -9 -14 -15 -23 -13 -24 4 -29 35 -6 40 24 6 37 -7
29 -27z m-206 21 c0 -3 -4 -8 -10 -11 -5 -3 -10 -1 -10 4 0 6 5 11 10 11 6 0
10 -2 10 -4z m275 -6 c3 -5 1 -10 -4 -10 -6 0 -11 5 -11 10 0 6 2 10 4 10 3 0
8 -4 11 -10z m-395 -30 c0 -5 -9 -10 -21 -10 -11 0 -17 5 -14 10 3 6 13 10 21
10 8 0 14 -4 14 -10z m410 -25 c0 -8 -2 -15 -4 -15 -2 0 -11 -3 -20 -6 -10 -4
-16 -1 -16 9 0 14 13 24 33 26 4 1 7 -6 7 -14z m-320 -5 c0 -5 -2 -10 -4 -10
-3 0 -8 5 -11 10 -3 6 -1 10 4 10 6 0 11 -4 11 -10z m144 -6 c19 -18 12 -34
-14 -34 -25 0 -35 17 -20 35 15 18 15 18 34 -1z m86 -9 c0 -8 -9 -15 -20 -15
-20 0 -26 11 -13 23 12 13 33 7 33 -8z m438 -6 c1 -8 -7 -28 -19 -42 l-21 -28
-174 3 c-96 1 -174 5 -174 9 0 6 85 30 235 67 62 15 149 10 153 -9z m1677 -39
c3 -5 2 -10 -4 -10 -5 0 -13 5 -16 10 -3 6 -2 10 4 10 5 0 13 -4 16 -10z"/>
<path d="M4595 3976 c-39 -14 -55 -25 -55 -37 0 -12 36 -12 60 1 23 13 37 -5
20 -25 -16 -20 -4 -35 28 -35 43 0 72 26 72 64 0 31 -3 34 -37 40 -46 7 -50 7
-88 -8z"/>
<path d="M4402 2674 c-20 -14 -31 -54 -14 -54 41 1 67 26 56 55 -8 19 -14 19
-42 -1z"/>
<path d="M8570 4741 c0 -5 7 -14 15 -21 24 -20 12 -22 -28 -5 -23 9 -38 11
-42 5 -8 -13 3 -30 20 -30 8 0 17 -5 21 -12 5 -8 0 -9 -14 -6 -30 8 -36 -6
-12 -27 11 -10 20 -25 20 -32 0 -12 10 -14 48 -8 46 6 50 5 76 -26 24 -29 25
-33 11 -49 -24 -26 -19 -30 45 -30 55 0 162 25 304 71 33 10 74 19 90 18 28 0
29 -1 12 -12 -11 -7 -34 -24 -51 -39 -20 -17 -44 -28 -63 -28 -16 0 -49 -7
-73 -16 -24 -8 -60 -14 -79 -14 -59 3 -67 -1 -29 -15 28 -10 56 -11 130 -3 93
11 95 11 162 65 95 76 91 93 -28 112 -95 16 -146 26 -200 40 -22 6 -80 11
-129 11 -81 0 -95 3 -143 30 -57 33 -63 34 -63 21z m335 -101 c32 -11 78 -20
102 -20 73 0 46 -21 -53 -42 -49 -11 -95 -20 -103 -21 -7 -1 -27 22 -43 51
l-30 52 34 0 c19 0 61 -9 93 -20z"/>
<path d="M9465 4648 c-13 -33 -8 -93 11 -158 21 -67 104 -207 128 -216 16 -6
27 -33 50 -116 9 -31 21 -60 26 -63 6 -4 24 -33 40 -64 32 -65 42 -71 107 -71
38 0 52 -6 84 -35 59 -53 129 -46 129 11 0 41 -29 41 -43 0 -2 -5 -23 1 -47
15 -33 18 -50 38 -74 84 -26 52 -32 76 -40 187 -7 88 -14 129 -23 132 -25 10
-31 -28 -18 -124 6 -52 17 -108 23 -123 7 -16 12 -44 12 -63 0 -27 -4 -34 -19
-34 -40 0 -85 76 -120 203 -23 86 -26 123 -11 162 14 36 3 75 -21 75 -13 0
-20 -10 -25 -37 -9 -53 -13 -57 -36 -36 -30 27 -63 99 -82 180 -10 39 -24 80
-31 90 -13 17 -14 17 -20 1z"/>
<path d="M10035 4180 c-8 -14 63 -161 97 -202 13 -16 37 -31 54 -34 27 -5 33
-3 39 15 5 17 10 19 25 11 27 -15 85 -12 126 5 37 15 42 42 8 37 -102 -16 -99
-16 -141 22 -58 52 -68 49 -63 -18 1 -20 -2 -27 -12 -24 -15 5 -74 107 -91
157 -13 37 -31 50 -42 31z"/>
<path d="M565 3580 c-7 -11 -160 -119 -219 -154 -91 -55 -186 -120 -202 -137
-38 -42 34 -49 86 -9 14 11 43 29 64 41 21 11 48 30 60 41 12 11 37 28 57 38
20 11 39 26 42 34 3 8 25 27 49 42 56 36 119 95 112 106 -7 11 -42 10 -49 -2z"/>
<path d="M886 1100 c-29 -9 -46 -25 -46 -45 0 -6 27 -10 62 -10 35 0 91 -4
125 -8 57 -7 63 -6 73 14 21 38 -8 54 -103 56 -45 1 -95 -2 -111 -7z"/>
</g>
</svg>
